<?xml version="1.0" encoding="UTF-8"?>
<svg version="1.1" xmlns="http://www.w3.org/2000/svg" width="512" height="512">
<path d="M0 0 C0.9355925 -0.00974854 1.871185 -0.01949707 2.83512878 -0.02954102 C23.24416486 -0.1984297 42.96079539 -0.03089418 63.0078125 4.23828125 C63.93158691 4.42551758 64.85536133 4.61275391 65.80712891 4.80566406 C101.4803425 12.13655694 136.04867954 27.05718327 165.0078125 49.23828125 C165.5857959 49.67495117 166.1637793 50.11162109 166.75927734 50.56152344 C175.26586251 57.002323 183.31244993 63.84319145 191.0078125 71.23828125 C191.60239258 71.80562988 192.19697266 72.37297852 192.80957031 72.95751953 C201.15799553 80.96365501 208.80764092 89.18319073 215.69726562 98.47900391 C217.02578341 100.26240538 218.38141287 102.02237641 219.7421875 103.78125 C227.10148221 113.40694237 233.21551204 123.60687263 239.0078125 134.23828125 C239.3697168 134.89876465 239.73162109 135.55924805 240.10449219 136.23974609 C257.60985188 168.57859478 268.92626162 206.31643928 269.24609375 243.23046875 C269.25584229 244.16606125 269.26559082 245.10165375 269.27563477 246.06559753 C269.44452345 266.47463361 269.27698793 286.19126414 265.0078125 306.23828125 C264.82057617 307.16205566 264.63333984 308.08583008 264.44042969 309.03759766 C257.10953681 344.71081125 242.18891048 379.27914829 220.0078125 408.23828125 C219.57114258 408.81626465 219.13447266 409.39424805 218.68457031 409.98974609 C212.24377075 418.49633126 205.4029023 426.54291868 198.0078125 434.23828125 C197.44046387 434.83286133 196.87311523 435.42744141 196.28857422 436.04003906 C188.28243874 444.38846428 180.06290302 452.03810967 170.76708984 458.92773438 C168.98368837 460.25625216 167.22371734 461.61188162 165.46484375 462.97265625 C155.83915138 470.33195096 145.63922112 476.44598079 135.0078125 482.23828125 C134.3473291 482.60018555 133.6868457 482.96208984 133.00634766 483.33496094 C100.66749897 500.84032063 62.92965447 512.15673037 26.015625 512.4765625 C25.0800325 512.48631104 24.14444 512.49605957 23.18049622 512.50610352 C2.77146014 512.6749922 -16.94517039 512.50745668 -36.9921875 508.23828125 C-37.91596191 508.05104492 -38.83973633 507.86380859 -39.79150391 507.67089844 C-75.4647175 500.34000556 -110.03305454 485.41937923 -138.9921875 463.23828125 C-139.5701709 462.80161133 -140.1481543 462.36494141 -140.74365234 461.91503906 C-149.25023751 455.4742395 -157.29682493 448.63337105 -164.9921875 441.23828125 C-165.58676758 440.67093262 -166.18134766 440.10358398 -166.79394531 439.51904297 C-175.14237053 431.51290749 -182.79201592 423.29337177 -189.68164062 413.99755859 C-191.01015841 412.21415712 -192.36578787 410.45418609 -193.7265625 408.6953125 C-201.08585721 399.06962013 -207.19988704 388.86968987 -212.9921875 378.23828125 C-213.3540918 377.57779785 -213.71599609 376.91731445 -214.08886719 376.23681641 C-231.59422688 343.89796772 -242.91063662 306.16012322 -243.23046875 269.24609375 C-243.24021729 268.31050125 -243.24996582 267.37490875 -243.26000977 266.41096497 C-243.42889845 246.00192889 -243.26136293 226.28529836 -238.9921875 206.23828125 C-238.80495117 205.31450684 -238.61771484 204.39073242 -238.42480469 203.43896484 C-231.09391181 167.76575125 -216.17328548 133.19741421 -193.9921875 104.23828125 C-193.55551758 103.66029785 -193.11884766 103.08231445 -192.66894531 102.48681641 C-186.22814575 93.98023124 -179.3872773 85.93364382 -171.9921875 78.23828125 C-171.42483887 77.64370117 -170.85749023 77.04912109 -170.27294922 76.43652344 C-162.26681374 68.08809822 -154.04727802 60.43845283 -144.75146484 53.54882812 C-142.96806337 52.22031034 -141.20809234 50.86468088 -139.44921875 49.50390625 C-129.82352638 42.14461154 -119.62359612 36.03058171 -108.9921875 30.23828125 C-108.3317041 29.87637695 -107.6712207 29.51447266 -106.99072266 29.14160156 C-74.65187397 11.63624187 -36.91402947 0.31983213 0 0 Z " fill="#88292A" transform="translate(242.9921875,-0.23828125)"/>
<path d="M0 0 C0.9355925 -0.00974854 1.871185 -0.01949707 2.83512878 -0.02954102 C23.24416486 -0.1984297 42.96079539 -0.03089418 63.0078125 4.23828125 C63.93158691 4.42551758 64.85536133 4.61275391 65.80712891 4.80566406 C101.4803425 12.13655694 136.04867954 27.05718327 165.0078125 49.23828125 C165.5857959 49.67495117 166.1637793 50.11162109 166.75927734 50.56152344 C175.26586251 57.002323 183.31244993 63.84319145 191.0078125 71.23828125 C191.60239258 71.80562988 192.19697266 72.37297852 192.80957031 72.95751953 C201.15799553 80.96365501 208.80764092 89.18319073 215.69726562 98.47900391 C217.02578341 100.26240538 218.38141287 102.02237641 219.7421875 103.78125 C227.10148221 113.40694237 233.21551204 123.60687263 239.0078125 134.23828125 C239.3697168 134.89876465 239.73162109 135.55924805 240.10449219 136.23974609 C257.60985188 168.57859478 268.92626162 206.31643928 269.24609375 243.23046875 C269.25584229 244.16606125 269.26559082 245.10165375 269.27563477 246.06559753 C269.44452345 266.47463361 269.27698793 286.19126414 265.0078125 306.23828125 C264.82057617 307.16205566 264.63333984 308.08583008 264.44042969 309.03759766 C257.10953681 344.71081125 242.18891048 379.27914829 220.0078125 408.23828125 C219.57114258 408.81626465 219.13447266 409.39424805 218.68457031 409.98974609 C212.24377075 418.49633126 205.4029023 426.54291868 198.0078125 434.23828125 C197.44046387 434.83286133 196.87311523 435.42744141 196.28857422 436.04003906 C188.28243874 444.38846428 180.06290302 452.03810967 170.76708984 458.92773438 C168.98368837 460.25625216 167.22371734 461.61188162 165.46484375 462.97265625 C155.83915138 470.33195096 145.63922112 476.44598079 135.0078125 482.23828125 C134.3473291 482.60018555 133.6868457 482.96208984 133.00634766 483.33496094 C100.66749897 500.84032063 62.92965447 512.15673037 26.015625 512.4765625 C25.0800325 512.48631104 24.14444 512.49605957 23.18049622 512.50610352 C2.77146014 512.6749922 -16.94517039 512.50745668 -36.9921875 508.23828125 C-37.91596191 508.05104492 -38.83973633 507.86380859 -39.79150391 507.67089844 C-75.4647175 500.34000556 -110.03305454 485.41937923 -138.9921875 463.23828125 C-139.5701709 462.80161133 -140.1481543 462.36494141 -140.74365234 461.91503906 C-149.25023751 455.4742395 -157.29682493 448.63337105 -164.9921875 441.23828125 C-165.58676758 440.67093262 -166.18134766 440.10358398 -166.79394531 439.51904297 C-175.14237053 431.51290749 -182.79201592 423.29337177 -189.68164062 413.99755859 C-191.01015841 412.21415712 -192.36578787 410.45418609 -193.7265625 408.6953125 C-201.08585721 399.06962013 -207.19988704 388.86968987 -212.9921875 378.23828125 C-213.3540918 377.57779785 -213.71599609 376.91731445 -214.08886719 376.23681641 C-231.59422688 343.89796772 -242.91063662 306.16012322 -243.23046875 269.24609375 C-243.24021729 268.31050125 -243.24996582 267.37490875 -243.26000977 266.41096497 C-243.42889845 246.00192889 -243.26136293 226.28529836 -238.9921875 206.23828125 C-238.80495117 205.31450684 -238.61771484 204.39073242 -238.42480469 203.43896484 C-231.09391181 167.76575125 -216.17328548 133.19741421 -193.9921875 104.23828125 C-193.55551758 103.66029785 -193.11884766 103.08231445 -192.66894531 102.48681641 C-186.22814575 93.98023124 -179.3872773 85.93364382 -171.9921875 78.23828125 C-171.42483887 77.64370117 -170.85749023 77.04912109 -170.27294922 76.43652344 C-162.26681374 68.08809822 -154.04727802 60.43845283 -144.75146484 53.54882812 C-142.96806337 52.22031034 -141.20809234 50.86468088 -139.44921875 49.50390625 C-129.82352638 42.14461154 -119.62359612 36.03058171 -108.9921875 30.23828125 C-108.3317041 29.87637695 -107.6712207 29.51447266 -106.99072266 29.14160156 C-74.65187397 11.63624187 -36.91402947 0.31983213 0 0 Z M-59.9921875 115.23828125 C-63.83075255 120.39806319 -67.57729745 125.91164075 -68.9921875 132.23828125 C-69.88849129 132.2282885 -69.88849129 132.2282885 -70.80290222 132.21809387 C-77.08200643 132.15117406 -83.36100761 132.10624828 -89.64038086 132.07348633 C-91.97668581 132.05849865 -94.31296312 132.03810158 -96.64916992 132.01196289 C-117.23114914 131.78762416 -134.25673952 132.43332751 -150.18359375 147.234375 C-164.44899619 163.04031765 -165.29997763 182.15643286 -165.2668457 202.29663086 C-165.27120351 204.06744092 -165.27639018 205.83824911 -165.28233337 207.60905457 C-165.29561813 212.37769724 -165.296314 217.14626016 -165.29377007 221.91491771 C-165.29269341 225.91310583 -165.29760127 229.91127826 -165.3023755 233.90946299 C-165.31343378 243.3494035 -165.31392855 252.78930421 -165.30786133 262.22924805 C-165.30182105 271.9313742 -165.31414246 281.63335536 -165.3354314 291.33545679 C-165.35310518 299.70109407 -165.35903977 308.06668544 -165.35579365 316.43234068 C-165.35399023 321.41312936 -165.35652249 326.39381453 -165.37050819 331.37458611 C-165.38317685 336.0607035 -165.38105793 340.7465963 -165.36809731 345.43271065 C-165.36575171 347.14057113 -165.3683927 348.84844788 -165.37672043 350.55628967 C-165.46662875 370.44693212 -162.61157405 387.78720965 -148.0078125 402.53125 C-136.19235813 413.65966908 -121.56587643 416.55577479 -105.90644836 416.50570679 C-104.84661513 416.5102379 -103.7867819 416.51476901 -102.6948325 416.51943743 C-99.1732186 416.53201276 -95.65176071 416.53046551 -92.13012695 416.52880859 C-89.59291894 416.53479814 -87.05571274 416.54160466 -84.51850891 416.54916382 C-78.35906609 416.56496012 -72.19967962 416.57127033 -66.04021845 416.57238857 C-61.02821761 416.57334224 -56.01622929 416.57746837 -51.00423241 416.58378983 C-36.7625089 416.60138411 -22.52081542 416.61063155 -8.27908096 416.60912888 C-7.51288513 416.60904897 -6.74668929 416.60896905 -5.95727539 416.60888672 C-5.19013303 416.60880496 -4.42299068 416.6087232 -3.63260158 416.60863896 C8.79107258 416.6078266 21.21462536 416.62695632 33.63826444 416.65516345 C46.42591888 416.68396561 59.21351426 416.69769972 72.00120193 416.6959759 C79.16799002 416.69531452 86.33465085 416.7006956 93.50140953 416.722332 C100.24601448 416.74256509 106.99030748 416.74179565 113.73494148 416.72729874 C116.20028451 416.72521736 118.66564458 416.72987114 121.13095856 416.74201965 C141.1942915 416.83442815 159.8063421 415.96403183 175.3203125 401.48828125 C190.07953451 385.62211759 191.31979199 367.78754713 191.26660156 347.15405273 C191.26931746 345.36867124 191.27288173 343.58329088 191.27722168 341.7979126 C191.28627612 336.98601832 191.28283049 332.17421058 191.27646351 327.36231494 C191.2713681 322.30575515 191.27610467 317.24920232 191.27923584 312.19264221 C191.28286489 303.70531903 191.27810397 295.21803076 191.26855469 286.73071289 C191.25766869 276.94280241 191.26120108 267.15497527 191.2722075 257.3670668 C191.2813065 248.9352572 191.282553 240.50347256 191.27733016 232.07165962 C191.27422525 227.04794167 191.27376028 222.02426279 191.28040314 217.00054741 C191.28621423 212.27673346 191.28211136 207.55302616 191.27061462 202.82922363 C191.26798821 201.1039809 191.26869824 199.37872908 191.27313995 197.65349007 C191.31785151 178.51026227 189.0539942 162.17521393 176.0078125 147.23828125 C162.31626011 133.95543192 145.17794038 131.12981617 126.82855225 131.25289917 C124.65990652 131.3065355 122.49226473 131.37538201 120.32421875 131.44921875 C98.01532971 132.06363827 98.01532971 132.06363827 92.69726562 128.8359375 C89.04226056 124.93320914 87.65056933 120.23434805 86.0078125 115.23828125 C79.34625117 105.85803976 67.70858513 100.46412195 57.0078125 97.23828125 C56.17811195 96.97377922 56.17811195 96.97377922 55.33164978 96.70393372 C52.03504933 96.04335815 48.76468567 96.07390256 45.41625977 96.0612793 C44.27627785 96.0514225 44.27627785 96.0514225 43.11326599 96.04136658 C40.60024911 96.02167502 38.0872921 96.00997547 35.57421875 96 C34.71150801 95.99592447 33.84879726 95.99184895 32.95994377 95.98764992 C28.38679114 95.96679913 23.81366836 95.95249745 19.24047852 95.94311523 C14.54689798 95.9320991 9.85379785 95.89775237 5.16038609 95.85794353 C1.52692366 95.83161891 -2.10642751 95.82340908 -5.73997688 95.81983376 C-7.46811196 95.81500255 -9.19624326 95.80348924 -10.92428398 95.78479576 C-30.40557305 95.58728133 -46.48189939 100.3879483 -59.9921875 115.23828125 Z " fill="#882929" transform="translate(242.9921875,-0.23828125)"/>
<path d="M0 0 C0.76013397 -0.0065712 1.52026794 -0.0131424 2.30343628 -0.01991272 C4.81101601 -0.03956712 7.31853589 -0.05129431 9.82617188 -0.0612793 C10.68796555 -0.06535482 11.54975922 -0.06943035 12.43766785 -0.07362938 C17.00434119 -0.09446246 21.57098479 -0.10877286 26.13769531 -0.11816406 C30.82340002 -0.12918806 35.50862457 -0.16354921 40.19416046 -0.20333576 C43.82333169 -0.22965767 47.45239152 -0.23786988 51.08164978 -0.24144554 C52.80699383 -0.24627591 54.53233412 -0.25778673 56.25758362 -0.27648354 C74.86695287 -0.46552948 88.77110159 3.95687079 102.95507812 16.3918457 C105.06103463 18.89860195 105.7491971 20.09219992 106.72851562 23.0559082 C108.40531975 27.73088689 109.90348594 31.51730646 114.29492188 34.17700195 C123.29188016 36.13402123 132.63344776 35.62191998 141.78512573 35.31504822 C159.87472316 34.7487393 178.06735904 36.54841498 192.60742188 48.42700195 C204.39151213 59.59988421 209.72301788 74.16691414 210.48389626 90.14549828 C210.58571226 94.78623311 210.57715255 99.42675844 210.56958008 104.06835938 C210.57393578 105.84548149 210.57912177 107.62260173 210.58506775 109.39971924 C210.59837923 114.1954731 210.59904503 118.99114778 210.59650445 123.78691649 C210.59542901 127.80718367 210.60033287 131.82743519 210.60510987 135.84769899 C210.61617874 145.34330229 210.61665778 154.83886603 210.6105957 164.33447266 C210.60456288 174.08991258 210.61685542 183.84520802 210.63816577 193.60062331 C210.65585455 202.01126173 210.66177156 210.42185446 210.65852803 218.83251077 C210.65672599 223.84022061 210.65924204 228.84782746 210.67324257 233.85552025 C210.68593475 238.5711647 210.68377065 243.28658625 210.67083168 248.00222778 C210.6684906 249.71892184 210.67111025 251.43563214 210.6794548 253.15230751 C210.71796637 261.70111774 210.4061397 269.99190038 208.96696472 278.43330383 C208.8517451 279.11895548 208.73652548 279.80460713 208.61781436 280.5110361 C206.35718452 292.4027213 198.08388046 303.04412314 188.55664062 310.24731445 C176.84869827 317.98783513 165.24163592 320.49177834 151.30924988 320.43769836 C149.71760662 320.44343668 149.71760662 320.44343668 148.09380895 320.44929093 C144.56208102 320.4595543 141.0305177 320.45564145 137.4987793 320.45166016 C134.95685171 320.45601033 132.41492544 320.4611945 129.8730011 320.46714783 C123.69904982 320.47912983 117.52515855 320.48169312 111.35119792 320.47934756 C106.32913652 320.47755997 101.30708828 320.47932349 96.28502846 320.48357201 C95.21030002 320.48446479 95.21030002 320.48446479 94.1138599 320.48537561 C92.65800974 320.48658744 91.20215959 320.48780158 89.74630944 320.48901799 C76.11149257 320.49987944 62.47670046 320.49773774 48.84188221 320.49163314 C36.39027257 320.48646616 23.93874121 320.49771613 11.48714706 320.51673136 C-1.32193026 320.53614136 -14.1309706 320.54436016 -26.9400627 320.54060811 C-34.12183471 320.53870074 -41.30354012 320.54113812 -48.48530006 320.55532265 C-55.24133665 320.56853213 -61.99719178 320.56593362 -68.75323677 320.55291176 C-71.22628584 320.55055172 -73.699346 320.55326002 -76.17238235 320.56153488 C-96.77957974 320.62549078 -114.73241403 319.65772902 -130.45117188 304.5949707 C-144.64869497 289.36400572 -146.0155011 272.25242198 -145.96386719 252.32983398 C-145.96658253 250.55769711 -145.97014649 248.78556137 -145.9744873 247.01342773 C-145.98355032 242.23233055 -145.98009197 237.45132037 -145.97372913 232.67022181 C-145.96863586 227.64528845 -145.97336993 222.62036214 -145.97650146 217.59542847 C-145.98013213 209.15759964 -145.97536638 200.71980591 -145.96582031 192.28198242 C-145.95494458 182.55718453 -145.95845859 172.83247057 -145.96947312 163.10767472 C-145.97858014 154.72850746 -145.97981442 146.34936531 -145.97459579 137.9701947 C-145.97149389 132.97881502 -145.97101723 127.98747465 -145.97766876 122.99609756 C-145.98349123 118.2993761 -145.97935665 113.60276167 -145.96788025 108.90605164 C-145.96525936 107.19293774 -145.96595413 105.47981467 -145.97040558 103.76670456 C-146.01412539 85.2159106 -144.62285918 68.32897637 -132.70507812 53.17700195 C-121.9869711 42.42508386 -109.1759802 36.22704375 -93.97998047 35.94995117 C-91.91696508 35.95026273 -89.85392982 35.96125469 -87.79101562 35.98168945 C-86.14753647 35.9859343 -86.14753647 35.9859343 -84.47085571 35.99026489 C-81.00714715 36.00136682 -77.54370716 36.02645257 -74.08007812 36.05200195 C-71.71680064 36.06204467 -69.35351905 36.07116825 -66.99023438 36.0793457 C-61.2284256 36.10127334 -55.46677106 36.13464998 -49.70507812 36.17700195 C-49.25588013 34.77695923 -49.25588013 34.77695923 -48.79760742 33.34863281 C-44.31530576 20.33643596 -34.41002193 11.64763618 -22.70507812 5.17700195 C-15.08248666 1.59816823 -8.43065138 0.0319438 0 0 Z M-14.21484375 43.10229492 C-14.65860352 44.00165771 -14.65860352 44.00165771 -15.11132812 44.91918945 C-15.4588916 45.58982422 -15.80645508 46.26045898 -16.16455078 46.95141602 C-16.5079248 47.64460938 -16.85129883 48.33780273 -17.20507812 49.05200195 C-22.40820778 58.87299232 -27.99267186 65.41772281 -38.72875977 69.25878906 C-43.69334887 70.61830912 -48.71117633 70.51332083 -53.82617188 70.5559082 C-54.88490005 70.57290268 -55.94362823 70.58989716 -57.03443909 70.60740662 C-60.40375877 70.66030463 -63.77306897 70.70070549 -67.14257812 70.73950195 C-70.50845316 70.78362165 -73.87423975 70.83050554 -77.24000549 70.88230896 C-79.32907927 70.91392595 -81.41822991 70.940917 -83.50743103 70.96253967 C-94.56937427 70.66741362 -94.56937427 70.66741362 -104.08007812 75.30200195 C-104.7271875 75.86145508 -105.37429687 76.4209082 -106.04101562 76.99731445 C-109.81561268 81.94150496 -109.99864541 87.94902437 -109.96577454 93.95703125 C-109.96960008 94.7094469 -109.97342563 95.46186255 -109.9773671 96.23707867 C-109.98763216 98.74186509 -109.98371743 101.2464195 -109.97973633 103.7512207 C-109.98408634 105.55368256 -109.98927045 107.35614258 -109.995224 109.15859985 C-110.00859252 114.04281801 -110.00919517 118.92695868 -110.0066607 123.81119156 C-110.00558977 127.89179829 -110.01047737 131.97238943 -110.01526612 136.05299282 C-110.02635338 145.67995309 -110.02680277 155.30687433 -110.02075195 164.93383789 C-110.01470879 174.86035056 -110.02703369 184.7867216 -110.04832202 194.71321011 C-110.06594027 203.24248628 -110.07193912 211.77171738 -110.06868428 220.30101109 C-110.06687201 225.39231278 -110.06950226 230.48351339 -110.08339882 235.57479858 C-110.09597653 240.36175256 -110.09403356 245.14848565 -110.08098793 249.93543625 C-110.07862267 251.69019012 -110.08135502 253.44495954 -110.08961105 255.19969559 C-110.10008444 257.59904351 -110.09197361 259.99765103 -110.07929993 262.39697266 C-110.08667421 263.08774241 -110.0940485 263.77851217 -110.10164624 264.49021435 C-110.0326444 270.71930348 -108.35858889 275.16597535 -104.39257812 279.98950195 C-98.57967726 284.72093289 -92.45392535 284.46369712 -85.30517578 284.43096924 C-84.25889322 284.43408922 -83.21261066 284.4372092 -82.13462257 284.44042373 C-78.62940459 284.44839974 -75.1243599 284.44208152 -71.61914062 284.43579102 C-69.10585427 284.43850105 -66.59256872 284.44206205 -64.07928467 284.44641113 C-57.96194112 284.45458824 -51.84466173 284.45338564 -45.72731733 284.44758585 C-40.75515814 284.44306716 -35.78301271 284.44245736 -30.81085205 284.44463348 C-30.10290485 284.44493995 -29.39495765 284.44524642 -28.6655575 284.44556217 C-27.22732909 284.44620163 -25.78910068 284.44685005 -24.35087228 284.44750735 C-10.8679344 284.453209 2.61497627 284.44665535 16.09790969 284.43590662 C27.66424508 284.42697126 39.23054033 284.42852334 50.796875 284.43774414 C64.23191552 284.44844969 77.6669322 284.45265969 91.10197639 284.44651961 C92.53488286 284.44588252 93.96778933 284.44525378 95.4006958 284.44463348 C96.45819284 284.44417066 96.45819284 284.44417066 97.53705347 284.44369848 C102.50263376 284.4419724 107.46819891 284.44488478 112.43377686 284.44959259 C119.11830376 284.45579087 125.80274313 284.45137124 132.48726654 284.43980408 C134.94228743 284.43715687 137.3973147 284.43792361 139.85233307 284.44232941 C143.19998182 284.44778377 146.54738639 284.44095177 149.89501953 284.43096924 C150.86953253 284.43543068 151.84404552 284.43989213 152.84808922 284.44448876 C159.07718816 284.40839099 163.97713598 284.06357187 168.98242188 279.98950195 C173.5253699 274.4642949 174.74414266 269.42254385 174.66914368 262.39024353 C174.67311808 261.63712232 174.67709249 260.8840011 174.68118733 260.10805804 C174.69076202 257.6008142 174.67902189 255.09414148 174.66723633 252.58691406 C174.66966587 250.7828297 174.67338677 248.97874667 174.67829895 247.17466736 C174.68768865 242.28633296 174.67829899 237.39819946 174.66496682 232.50988078 C174.65363445 227.3904218 174.65776117 222.27097244 174.65971375 217.15150452 C174.66059607 208.55604782 174.64952841 199.9606701 174.63110352 191.36523438 C174.60993013 181.43077202 174.60642783 171.49642526 174.61266547 161.5619449 C174.61836177 151.9996761 174.61271076 142.43744795 174.60149193 132.87518501 C174.59685016 128.80794077 174.59597026 124.74072143 174.59807777 120.67347527 C174.59996261 115.88408873 174.59184168 111.09481972 174.57601738 106.30545998 C174.57177828 104.54867921 174.57092146 102.79188651 174.57370758 101.03510284 C174.57693554 98.63553224 174.56783224 96.23631139 174.55561829 93.83677673 C174.55939761 93.14309413 174.56317693 92.44941153 174.56707078 91.73470825 C174.4999401 84.26938214 172.51699374 79.52051735 167.29492188 74.17700195 C160.49673865 70.42011122 152.03784063 71.033282 144.49804688 71.0012207 C142.38345361 70.97802013 140.26887025 70.9539027 138.15429688 70.92895508 C134.85214609 70.89392484 131.55036052 70.8645241 128.24804688 70.85107422 C125.0392742 70.83548135 121.8315404 70.79520544 118.62304688 70.7512207 C117.65183899 70.75312912 116.6806311 70.75503754 115.67999268 70.75700378 C105.10225759 70.57095208 96.39604441 67.39596608 88.70898438 60.0871582 C85.31463695 55.99526689 82.85111313 51.52633798 80.51318359 46.76196289 C77.67474571 41.13969872 74.41711526 38.21773308 68.29492188 36.17700195 C65.95605711 36.06174314 63.61404701 36.00753243 61.27246094 35.98413086 C60.56150269 35.97595337 59.85054443 35.96777588 59.11804199 35.95935059 C56.76555209 35.93454251 54.41312241 35.91799137 52.06054688 35.90356445 C50.85316486 35.89557894 50.85316486 35.89557894 49.6213913 35.8874321 C45.35990858 35.86071893 41.09845496 35.84133923 36.83691406 35.8269043 C33.31581607 35.81357173 29.79529853 35.78572995 26.27441406 35.74487305 C22.01743067 35.69547824 17.76097323 35.67077498 13.50371552 35.66367722 C11.88503019 35.65697715 10.26635603 35.64178742 8.64783478 35.61778641 C-4.34844701 35.27412768 -4.34844701 35.27412768 -14.21484375 43.10229492 Z " fill="#020000" transform="translate(223.705078125,95.822998046875)"/>
<path d="M0 0 C14.63501381 11.34324778 14.63501381 11.34324778 17.3203125 19.1171875 C17.9803125 19.1171875 18.6403125 19.1171875 19.3203125 19.1171875 C29.886638 37.99100407 33.31471929 56.92233873 28.484375 78.3203125 C22.4757981 97.91875795 9.2303833 113.30761931 -8.6796875 123.1171875 C-27.54343271 131.82529887 -47.19282109 132.7053167 -66.73925781 125.84375 C-84.01752269 119.37418328 -98.72086762 104.64454243 -106.46484375 88.10546875 C-113.63548931 70.46706408 -114.34904602 48.85633342 -107.12109375 31.15234375 C-102.68508747 21.12222697 -96.51614553 13.6867362 -88.6796875 6.1171875 C-88.00164062 5.41980469 -87.32359375 4.72242188 -86.625 4.00390625 C-80.91615528 -1.52117737 -73.87886091 -4.73512196 -66.6796875 -7.8828125 C-65.69484375 -8.32109375 -64.71 -8.759375 -63.6953125 -9.2109375 C-43.42604024 -16.8253202 -17.42853025 -12.24570201 0 0 Z " fill="#020000" transform="translate(296.6796875,214.8828125)"/>
<path d="M0 0 C7.63262048 6.67699158 12.07306709 13.96258468 12.86328125 24.21484375 C12.88235816 25.55976622 12.8859534 26.90498684 12.875 28.25 C12.87081055 28.95366699 12.86662109 29.65733398 12.86230469 30.38232422 C12.62674224 41.19063095 7.63061104 49.03248462 -0.05859375 56.41015625 C-7.78154706 62.58598262 -16.10904661 64.10389185 -25.8203125 63.7265625 C-37.25848412 62.41722536 -44.67616449 57.19995655 -51.75 48.375 C-57.95431206 39.46581074 -58.37247727 30.83887333 -57.4375 20.3125 C-55.23046069 10.81100871 -49.42361875 3.12407591 -41.51953125 -2.4375 C-28.25563927 -10.40081226 -12.30553745 -9.29875454 0 0 Z " fill="#86292A" transform="translate(278.4375,245.6875)"/>
<path d="M0 0 C0 0.33 0 0.66 0 1 C-6.87367737 3.10686035 -13.19095773 3.23459891 -20.34765625 3.16796875 C-22.75065501 3.17364325 -25.15365056 3.18085103 -27.55664062 3.18945312 C-31.3181975 3.19363455 -35.07866045 3.187359 -38.84008789 3.15454102 C-42.48920909 3.12762342 -46.1360577 3.14442131 -49.78515625 3.16796875 C-50.9051149 3.14743942 -52.02507355 3.1269101 -53.17897034 3.10575867 C-58.51278014 3.17168299 -62.11195412 3.40615507 -66.13842773 7.11450195 C-70.8504036 12.23449641 -71.25008221 18.8692125 -71.25396729 25.53878784 C-71.25708727 26.26529104 -71.26020725 26.99179425 -71.26342177 27.7403127 C-71.27135394 30.15752582 -71.26509691 32.57448454 -71.25878906 34.99169922 C-71.2615011 36.73180284 -71.26506323 38.47190531 -71.26940918 40.21200562 C-71.27851149 44.92694979 -71.27499746 49.64180625 -71.26865101 54.35675192 C-71.26357824 59.29863816 -71.26828616 64.24051702 -71.27142334 69.18240356 C-71.27505994 77.48278141 -71.27027262 85.78312365 -71.26074219 94.08349609 C-71.24986541 103.66684829 -71.25337882 113.25011533 -71.264395 122.83346546 C-71.27348515 131.07232765 -71.27474449 139.31116428 -71.26951766 147.55002987 C-71.26640654 152.46587145 -71.26596486 157.38167308 -71.27259064 162.29751205 C-71.27838835 166.92192422 -71.27432293 171.54622717 -71.26280212 176.17062759 C-71.26016818 177.86326161 -71.26089889 179.55590489 -71.26532745 181.24853516 C-71.8636532 195.39094942 -71.8636532 195.39094942 -66.6875 208 C-63.97507008 210.0185525 -62.3329312 210.71432018 -59 211 C-59 211.66 -59 212.32 -59 213 C-62.34856435 213.38269307 -63.74524277 213.16377251 -66.625 211.3125 C-71.15093984 206.90566384 -72.88916399 202.88323436 -73.12863445 196.65376568 C-73.13542589 195.29610447 -73.13671845 193.93840912 -73.13371277 192.58073425 C-73.13597833 191.83088188 -73.13824388 191.08102951 -73.14057809 190.30845433 C-73.14691101 187.79440639 -73.14608918 185.28041246 -73.14526367 182.76635742 C-73.14825563 180.9643395 -73.15165824 179.16232222 -73.15544128 177.36030579 C-73.16428233 172.46353117 -73.16661946 167.56677403 -73.16725707 162.66999221 C-73.16820641 158.58208446 -73.17188505 154.49418079 -73.17542917 150.40627462 C-73.18357432 140.76067512 -73.18601337 131.11508496 -73.18530273 121.46948242 C-73.18470208 111.52091151 -73.19525124 101.57239484 -73.2110464 91.62383765 C-73.22412484 83.0818898 -73.22948649 74.53995966 -73.22884732 65.99800187 C-73.2285924 60.89661491 -73.2314403 55.79527614 -73.24202538 50.69389915 C-73.2517113 45.89471776 -73.25178211 41.09563057 -73.24450874 36.29644585 C-73.24346348 34.5368562 -73.24582232 32.77726068 -73.2518692 31.01768112 C-73.25960052 28.61174922 -73.25493684 26.20614172 -73.24723816 23.80021667 C-73.25238172 23.10740056 -73.25752529 22.41458444 -73.26282471 21.70077389 C-73.22500023 16.3347441 -72.65973545 11.17401967 -69.3359375 6.8203125 C-68.68882813 6.26085937 -68.04171875 5.70140625 -67.375 5.125 C-66.74335937 4.55007812 -66.11171875 3.97515625 -65.4609375 3.3828125 C-59.24654283 -0.10908546 -50.55845321 0.81118811 -43.60546875 0.71875 C-42.00171135 0.69113586 -42.00171135 0.69113586 -40.36555481 0.66296387 C-35.81777406 0.58468173 -31.26986002 0.51631737 -26.72192383 0.44775391 C-23.39136322 0.39608791 -20.06093111 0.33885296 -16.73046875 0.28125 C-15.69923386 0.26767456 -14.66799896 0.25409912 -13.60551453 0.2401123 C-12.17306145 0.21503601 -12.17306145 0.21503601 -10.71166992 0.18945312 C-9.87198166 0.17692505 -9.0322934 0.16439697 -8.16716003 0.15148926 C-1.04011967 -0.34670656 -1.04011967 -0.34670656 0 0 Z " fill="#742D2E" transform="translate(187,166)"/>
<path d="M0 0 C0.77976983 0.21261128 1.55953966 0.42522257 2.36293888 0.64427662 C15.21525473 3.70446441 27.97369557 3.40030327 41.12084961 3.34057617 C43.74371837 3.33972874 46.36658783 3.3402073 48.98945618 3.34190369 C54.60903691 3.34346722 60.22851213 3.33415516 65.84806633 3.31719017 C73.97271007 3.29267864 82.09730345 3.28498256 90.22198016 3.2812262 C103.40769984 3.27468064 116.59336345 3.25477127 129.77905273 3.22631836 C142.57820355 3.19872848 155.37733907 3.17751911 168.17651367 3.16479492 C169.36241363 3.16361267 169.36241363 3.16361267 170.57227116 3.16240653 C174.5389745 3.15849106 178.50567795 3.15470002 182.47238147 3.15097082 C215.31496178 3.11993401 248.15747335 3.06715029 281 3 C280.67 3.66 280.34 4.32 280 5 C245.75680442 5.06868974 211.5136246 5.12154078 177.27037499 5.15319599 C173.2262297 5.15694804 169.18208454 5.16083101 165.13793945 5.16479492 C164.33283426 5.16558185 163.52772906 5.16636878 162.69822674 5.16717956 C149.66776838 5.18022798 136.63734979 5.20387872 123.606915 5.23145839 C110.23317727 5.25952827 96.85946034 5.27617961 83.48569435 5.28226548 C75.23557361 5.28637864 66.98556529 5.29936254 58.73547917 5.3237494 C53.07552992 5.33962613 47.41563866 5.34439598 41.75566877 5.34050413 C38.49176166 5.33858558 35.22809171 5.34314282 31.96421051 5.35761642 C28.42016257 5.37256122 24.87659403 5.36894586 21.33253479 5.36076355 C19.79602409 5.37387134 19.79602409 5.37387134 18.22847277 5.38724393 C12.14273195 5.34931651 6.5151486 4.77371307 1 2 C0.67 1.34 0.34 0.68 0 0 Z " fill="#783031" transform="translate(111,412)"/>
<path d="M0 0 C0.95519531 0.20496094 1.91039063 0.40992188 2.89453125 0.62109375 C10.58769777 2.23634944 18.13497437 3.52580927 26 4 C26 4.33 26 4.66 26 5 C8.82436535 5.56900876 8.82436535 5.56900876 1 2 C0.67 1.34 0.34 0.68 0 0 Z " fill="#722B2C" transform="translate(111,412)"/>
<path d="M0 0 C-1.53643852 3.68069887 -3.78150945 5.98775204 -6.625 8.75 C-7.85089844 9.94882813 -7.85089844 9.94882813 -9.1015625 11.171875 C-9.72804687 11.77515625 -10.35453125 12.3784375 -11 13 C-11 8.89253434 -9.36039564 7.80245139 -6.625 4.8125 C-5.81289062 3.91144531 -5.00078125 3.01039062 -4.1640625 2.08203125 C-2 0 -2 0 0 0 Z " fill="#170303" transform="translate(192,108)"/>
<path d="M0 0 C0.66 0 1.32 0 2 0 C1.67 0.99 1.34 1.98 1 3 C-7.58 3 -16.16 3 -25 3 C-25 2.67 -25 2.34 -25 2 C-24.27820557 1.97494385 -23.55641113 1.9498877 -22.81274414 1.92407227 C-19.562465 1.80848698 -16.31250312 1.68559226 -13.0625 1.5625 C-11.92619141 1.52318359 -10.78988281 1.48386719 -9.61914062 1.44335938 C-7.99975586 1.38051758 -7.99975586 1.38051758 -6.34765625 1.31640625 C-5.34742432 1.27974854 -4.34719238 1.24309082 -3.31665039 1.20532227 C-1.03930812 1.25328159 -1.03930812 1.25328159 0 0 Z " fill="#7D2E2F" transform="translate(173,128)"/>
<path d="M0 0 C0.66 0 1.32 0 2 0 C1.67 0.99 1.34 1.98 1 3 C0.01 3 -0.98 3 -2 3 C-2 3.99 -2 4.98 -2 6 C-2.66 6 -3.32 6 -4 6 C-4.103125 6.61875 -4.20625 7.2375 -4.3125 7.875 C-5 10 -5 10 -8 12 C-6.71999898 6.99635967 -4.82671924 4.43423522 -1 1 C-0.67 0.67 -0.34 0.34 0 0 Z " fill="#732B2B" transform="translate(215,134)"/>
<path d="M0 0 C0 3.69349436 -0.88153908 5.00493457 -3 8 C-5.6875 10.3125 -5.6875 10.3125 -8 12 C-8.66 11.67 -9.32 11.34 -10 11 C-9.52949219 10.54109375 -9.05898438 10.0821875 -8.57421875 9.609375 C-3.96631602 5.08450705 -3.96631602 5.08450705 0 0 Z " fill="#722B2C" transform="translate(424,393)"/>
<path d="M0 0 C0.33 0.66 0.66 1.32 1 2 C0.22265625 3.9453125 0.22265625 3.9453125 -0.9375 6.125 C-1.31777344 6.84945312 -1.69804687 7.57390625 -2.08984375 8.3203125 C-2.39019531 8.87460938 -2.69054687 9.42890625 -3 10 C-3.66 10 -4.32 10 -5 10 C-3.66511872 6.40608886 -2.03977277 3.24509304 0 0 Z " fill="#1B0404" transform="translate(197,233)"/>
<path d="M0 0 C0.66 0 1.32 0 2 0 C0.70700306 2.88437779 -0.65941363 4.87219421 -3 7 C-3.66 6.67 -4.32 6.34 -5 6 C-3.38405168 3.95880212 -1.7143618 1.95927063 0 0 Z " fill="#1C0404" transform="translate(94,146)"/>
</svg>
